<svg width="79" height="79" viewBox="0 0 79 79" fill="none" xmlns="http://www.w3.org/2000/svg">
<rect width="79" height="79" rx="6" fill="#DAF5FF"/>
<path d="M23.0415 24.6875H32.9165C34.6625 24.6875 36.337 25.3811 37.5716 26.6157C38.8062 27.8503 39.4998 29.5248 39.4998 31.2708V54.3125C39.4998 53.003 38.9796 51.7471 38.0537 50.8212C37.1277 49.8952 35.8718 49.375 34.5623 49.375H23.0415V24.6875Z" stroke="#0B0D17" stroke-width="2" stroke-linecap="round" stroke-linejoin="round"/>
<path d="M55.9583 24.6875H46.0833C44.3373 24.6875 42.6628 25.3811 41.4282 26.6157C40.1936 27.8503 39.5 29.5248 39.5 31.2708V54.3125C39.5 53.003 40.0202 51.7471 40.9462 50.8212C41.8721 49.8952 43.128 49.375 44.4375 49.375H55.9583V24.6875Z" stroke="#0B0D17" stroke-width="2" stroke-linecap="round" stroke-linejoin="round"/>
</svg>
