<svg width="139" height="39" viewBox="0 0 139 39" fill="none" xmlns="http://www.w3.org/2000/svg">
<path d="M19.0176 13.6072V20.3162L23.7023 16.9617L19.0176 13.6072Z" fill="#1379BE"/>
<path d="M19.0176 20.3162L23.7122 16.9717L23.7023 16.9617L19.0176 20.3162Z" fill="#1379BE"/>
<path d="M4.77424 3.41424L0 0V33.9234L4.77424 30.5092V17.0314V3.41424Z" fill="#1379BE"/>
<path d="M23.7122 16.9617L19.0176 13.6072L23.7023 16.9617H23.7122Z" fill="#1379BE"/>
<path d="M15.1982 10.8798L11.3887 8.15237L4.77441 17.0314L11.329 25.8208L15.1285 23.0934L10.3344 17.0712L15.1982 10.8798Z" fill="#1379BE"/>
<path d="M81.5601 28.4985C80.1765 28.5244 78.7983 28.3192 77.4821 27.8913C76.3575 27.5189 75.3356 26.8882 74.4982 26.0498C72.8935 24.4173 72.0912 22.0947 72.0912 19.0819C72.068 17.7323 72.2628 16.3878 72.6681 15.1003C73.0317 13.9955 73.6211 12.9785 74.3988 12.1141C75.2025 11.2479 76.1866 10.5689 77.2814 10.1251C78.3762 9.68139 79.555 9.48366 80.7346 9.54594C81.9223 9.53189 83.1035 9.72385 84.2257 10.1133C85.2686 10.4906 86.2064 11.1117 86.961 11.925C87.7361 12.7601 88.3109 13.7609 88.6419 14.8515C89.0094 16.0848 89.1872 17.367 89.1691 18.6539V20.5054H76.9848C76.9451 21.0969 77.0379 21.6899 77.2564 22.241C77.475 22.7921 77.8137 23.2873 78.248 23.6907C79.3189 24.4671 80.6291 24.8407 81.948 24.7458C83.043 24.7447 84.132 24.5837 85.1806 24.268C85.715 24.1056 86.2396 23.9128 86.7521 23.6907C87.361 23.4269 87.9524 23.1243 88.5226 22.7848V27.1348C87.4393 27.5818 86.3127 27.9154 85.1607 28.1302C84.5763 28.2518 83.985 28.3382 83.3902 28.389C82.7636 28.4686 82.1768 28.4985 81.5601 28.4985ZM84.4843 16.9219C84.5312 15.8802 84.175 14.8605 83.4897 14.075C83.1718 13.7616 82.7878 13.5235 82.3658 13.3783C81.8542 13.2018 81.3154 13.1175 80.7744 13.1294C80.2903 13.106 79.8067 13.1823 79.3533 13.3535C78.8999 13.5247 78.4865 13.7872 78.1386 14.1248C77.4657 14.9058 77.0766 15.8916 77.0345 16.9219H84.4843Z" fill="#F1F6FA"/>
<path d="M98.3495 18.5842L92.1927 9.95407H97.7228L100.707 15.3492L103.691 9.95407H109.221L103.124 18.6241L109.748 28.0605H104.228L100.727 21.8989L97.1857 27.9908H91.6655L98.3495 18.5842Z" fill="#F1F6FA"/>
<path d="M121.445 28.4985C120.06 28.518 118.682 28.3061 117.367 27.8714C116.242 27.499 115.22 26.8684 114.383 26.0299C112.778 24.3974 111.976 22.0748 111.976 19.062C111.953 17.7124 112.148 16.3679 112.553 15.0804C112.916 13.9756 113.506 12.9586 114.284 12.0942C115.087 11.228 116.071 10.549 117.166 10.1053C118.261 9.66149 119.44 9.46376 120.619 9.52605C121.807 9.51199 122.988 9.70396 124.11 10.0934C125.153 10.4707 126.091 11.0918 126.846 11.9051C127.621 12.7402 128.196 13.741 128.527 14.8316C128.889 16.0659 129.067 17.3474 129.054 18.634V20.5054H116.84C116.8 21.0969 116.893 21.6899 117.111 22.241C117.33 22.7921 117.669 23.2874 118.103 23.6907C119.174 24.4671 120.484 24.8407 121.803 24.7458C122.898 24.7447 123.987 24.5837 125.036 24.268C125.57 24.1056 126.095 23.9128 126.607 23.6907C127.206 23.4258 127.787 23.1232 128.348 22.7849V27.1348C127.264 27.5819 126.138 27.9154 124.986 28.1302C124.401 28.2518 123.81 28.3382 123.215 28.389C122.619 28.4686 122.032 28.4985 121.445 28.4985ZM124.329 16.9219C124.376 15.8802 124.02 14.8605 123.335 14.0751C123.017 13.7616 122.633 13.5235 122.211 13.3783C121.699 13.2018 121.16 13.1175 120.619 13.1294C120.135 13.106 119.652 13.1823 119.198 13.3535C118.745 13.5247 118.331 13.7872 117.984 14.1248C117.314 14.9071 116.929 15.8928 116.889 16.9219H124.329Z" fill="#F1F6FA"/>
<path d="M68.908 16.5934C68.908 16.5038 68.908 16.4242 68.908 16.3446V15.9962C68.908 15.807 68.908 15.6478 68.908 15.4786C68.908 15.3093 68.908 15.0306 68.8384 14.8216C68.805 14.5665 68.7552 14.3138 68.6892 14.0651C68.6892 13.8859 68.6196 13.6968 68.5699 13.5276C68.4908 13.2803 68.3978 13.0377 68.2914 12.8009C68.2317 12.6715 68.1919 12.5322 68.1322 12.4227C67.9673 12.0934 67.7672 11.783 67.5354 11.4969C67.3566 11.2877 67.1567 11.0975 66.9387 10.9296L66.8292 10.84C66.6133 10.6887 66.3873 10.5524 66.1529 10.4319L66.0236 10.3721C65.4686 10.1322 64.8827 9.97137 64.283 9.89434H64.2034C63.915 9.89434 63.6166 9.82466 63.2983 9.80475C62.3184 9.68703 61.3246 9.80639 60.4004 10.1528C59.4761 10.4992 58.6485 11.0626 57.987 11.7956V9.62558L53.2227 9.70521V28.3193H57.9372V14.9809C58.3409 14.6207 58.8137 14.3467 59.3267 14.1755C59.8397 14.0044 60.3823 13.9397 60.9211 13.9855C61.8122 13.9977 62.664 14.3544 63.2983 14.9809C63.6368 15.3673 63.8863 15.8236 64.0289 16.3173C64.1716 16.811 64.204 17.33 64.1238 17.8377V18.1363V28.3193H68.8384V17.1409L68.908 16.5934Z" fill="#F1F6FA"/>
<path d="M38.0546 19.0222V5.41501L33.3301 2.04059V28.16H38.0546V19.1914H37.9253L38.0546 19.0222Z" fill="#F1F6FA"/>
<path d="M43.5151 19.1815L48.4784 12.8805L44.6689 10.1531L38.0546 19.0222V19.1018H37.9253L44.659 28.2198L50.587 28.16L43.5151 19.1815Z" fill="#F1F6FA"/>
<path d="M137.608 1.94104V28.16H132.893V5.31547L137.608 1.94104Z" fill="#F1F6FA"/>
<path d="M82.7818 30.8298H84.6045V30.2636H80.3386V30.8298H82.1613V35.693H82.7818V30.8298ZM85.0271 33.909H88.2072C88.2124 33.8728 88.2149 33.8392 88.2149 33.8082C88.2149 33.7772 88.2149 33.7487 88.2149 33.7229C88.2149 33.4281 88.1736 33.1515 88.0908 32.8929C88.0081 32.6344 87.8866 32.4095 87.7263 32.2181C87.566 32.0268 87.3695 31.8769 87.1368 31.7683C86.9041 31.6545 86.6404 31.5976 86.3457 31.5976C86.0665 31.5976 85.8079 31.6519 85.57 31.7605C85.3374 31.8691 85.1357 32.0191 84.9651 32.2104C84.7944 32.3965 84.66 32.6189 84.5617 32.8774C84.4687 33.1308 84.4221 33.4023 84.4221 33.6918C84.4221 34.0021 84.4738 34.2865 84.5772 34.545C84.6858 34.8036 84.8306 35.0259 85.0116 35.2121C85.1926 35.3931 85.4046 35.5353 85.6476 35.6387C85.8906 35.7369 86.1492 35.786 86.4232 35.786C86.8059 35.786 87.1265 35.7188 87.385 35.5844C87.6436 35.4448 87.8737 35.2612 88.0753 35.0337L87.703 34.7002C87.5376 34.8708 87.354 35.0078 87.1523 35.1112C86.9558 35.2147 86.718 35.2664 86.4388 35.2664C86.2629 35.2664 86.0949 35.2379 85.9346 35.181C85.7743 35.119 85.6295 35.0311 85.5002 34.9173C85.371 34.7984 85.265 34.6562 85.1822 34.4907C85.0995 34.3201 85.0478 34.1262 85.0271 33.909ZM85.0271 33.4669C85.0478 33.2704 85.0943 33.0894 85.1667 32.924C85.2391 32.7585 85.3322 32.6163 85.4459 32.4974C85.5597 32.3733 85.6916 32.2776 85.8415 32.2104C85.9915 32.138 86.1544 32.1018 86.3302 32.1018C86.5318 32.1018 86.7076 32.1406 86.8576 32.2181C87.0127 32.2905 87.142 32.3888 87.2454 32.5129C87.354 32.637 87.4367 32.7818 87.4936 32.9472C87.5557 33.1127 87.5944 33.2859 87.61 33.4669H85.0271ZM92.7043 35.0104L92.3242 34.6536C92.1639 34.8243 91.9829 34.9665 91.7813 35.0802C91.5848 35.194 91.3572 35.2509 91.0987 35.2509C90.8867 35.2509 90.6902 35.2121 90.5092 35.1345C90.3334 35.0518 90.1783 34.9406 90.0439 34.801C89.9146 34.6562 89.8112 34.4882 89.7336 34.2968C89.6612 34.1055 89.625 33.9013 89.625 33.6841C89.625 33.4669 89.6612 33.2652 89.7336 33.0791C89.806 32.8878 89.9068 32.7223 90.0361 32.5827C90.1654 32.4379 90.3179 32.3267 90.4937 32.2492C90.6695 32.1664 90.8583 32.1251 91.0599 32.1251C91.334 32.1251 91.5641 32.1845 91.7502 32.3035C91.9416 32.4224 92.1174 32.5646 92.2777 32.7301L92.6732 32.3112C92.5802 32.213 92.4793 32.1199 92.3707 32.032C92.2621 31.9441 92.1432 31.8691 92.0139 31.8071C91.8847 31.7398 91.7425 31.6881 91.5874 31.6519C91.4322 31.6157 91.259 31.5976 91.0677 31.5976C90.7729 31.5976 90.4989 31.6545 90.2455 31.7683C89.9973 31.8769 89.7801 32.0268 89.594 32.2181C89.413 32.4095 89.2708 32.6344 89.1674 32.8929C89.064 33.1463 89.0123 33.4152 89.0123 33.6996C89.0123 33.984 89.064 34.2529 89.1674 34.5063C89.2708 34.7596 89.413 34.982 89.594 35.1733C89.7801 35.3594 89.9973 35.5094 90.2455 35.6232C90.4989 35.7317 90.7729 35.786 91.0677 35.786C91.4452 35.786 91.7606 35.7136 92.0139 35.5689C92.2725 35.4241 92.5026 35.2379 92.7043 35.0104ZM94.2888 33.3971C94.2888 33.211 94.3172 33.0403 94.3741 32.8852C94.4362 32.7301 94.5215 32.5982 94.6301 32.4896C94.7386 32.3759 94.8653 32.2905 95.0101 32.2337C95.1601 32.1716 95.3204 32.1406 95.491 32.1406C95.8478 32.1406 96.1219 32.2492 96.3132 32.4663C96.5045 32.6835 96.6002 32.9783 96.6002 33.3506V35.693H97.1974V33.2032C97.1974 32.9653 97.1612 32.7482 97.0888 32.5517C97.0216 32.3552 96.9207 32.1871 96.7863 32.0475C96.657 31.9027 96.4967 31.7915 96.3054 31.714C96.1193 31.6364 95.9047 31.5976 95.6616 31.5976C95.3152 31.5976 95.0334 31.6752 94.8162 31.8303C94.599 31.9803 94.4232 32.1639 94.2888 32.381V30.0309H93.6915V35.693H94.2888V33.3971ZM99.0683 33.3971C99.0683 33.211 99.0967 33.0403 99.1536 32.8852C99.2157 32.7301 99.301 32.5982 99.4096 32.4896C99.5182 32.3759 99.6448 32.2905 99.7896 32.2337C99.9396 32.1716 100.1 32.1406 100.271 32.1406C100.627 32.1406 100.901 32.2492 101.093 32.4663C101.284 32.6835 101.38 32.9783 101.38 33.3506V35.693H101.977V33.2032C101.977 32.9653 101.941 32.7482 101.868 32.5517C101.801 32.3552 101.7 32.1871 101.566 32.0475C101.437 31.9027 101.276 31.7915 101.085 31.714C100.899 31.6364 100.684 31.5976 100.441 31.5976C100.095 31.5976 99.8129 31.6752 99.5957 31.8303C99.3785 31.9803 99.2027 32.1639 99.0683 32.381V31.683H98.4711V35.693H99.0683V33.3971ZM107.183 33.6841C107.183 33.3997 107.131 33.1308 107.028 32.8774C106.924 32.6241 106.78 32.4043 106.594 32.2181C106.407 32.0268 106.185 31.8769 105.926 31.7683C105.673 31.6545 105.396 31.5976 105.097 31.5976C104.791 31.5976 104.51 31.6545 104.251 31.7683C103.998 31.8769 103.778 32.0268 103.592 32.2181C103.406 32.4095 103.261 32.6344 103.157 32.8929C103.054 33.1463 103.002 33.4152 103.002 33.6996C103.002 33.984 103.054 34.2529 103.157 34.5063C103.261 34.7596 103.406 34.982 103.592 35.1733C103.778 35.3594 103.998 35.5094 104.251 35.6232C104.505 35.7317 104.781 35.786 105.081 35.786C105.381 35.786 105.66 35.7317 105.919 35.6232C106.177 35.5094 106.4 35.3569 106.586 35.1655C106.772 34.9742 106.917 34.7519 107.02 34.4985C107.129 34.24 107.183 33.9685 107.183 33.6841ZM106.57 33.6996C106.57 33.9168 106.534 34.121 106.462 34.3123C106.389 34.4985 106.288 34.6614 106.159 34.801C106.03 34.9406 105.875 35.0518 105.694 35.1345C105.513 35.2121 105.314 35.2509 105.097 35.2509C104.885 35.2509 104.688 35.2095 104.507 35.1268C104.326 35.044 104.168 34.9328 104.034 34.7932C103.905 34.6536 103.801 34.4882 103.724 34.2968C103.651 34.1055 103.615 33.9013 103.615 33.6841C103.615 33.4669 103.651 33.2652 103.724 33.0791C103.796 32.8878 103.894 32.7223 104.018 32.5827C104.148 32.4379 104.303 32.3267 104.484 32.2492C104.665 32.1664 104.864 32.1251 105.081 32.1251C105.293 32.1251 105.49 32.1664 105.671 32.2492C105.852 32.3319 106.009 32.4457 106.144 32.5904C106.278 32.7301 106.382 32.8955 106.454 33.0868C106.531 33.2782 106.57 33.4824 106.57 33.6996ZM108.916 35.693V30.0309H108.319V35.693H108.916ZM114.235 33.6841C114.235 33.3997 114.183 33.1308 114.08 32.8774C113.976 32.6241 113.832 32.4043 113.645 32.2181C113.459 32.0268 113.237 31.8769 112.978 31.7683C112.725 31.6545 112.448 31.5976 112.148 31.5976C111.843 31.5976 111.562 31.6545 111.303 31.7683C111.05 31.8769 110.83 32.0268 110.644 32.2181C110.458 32.4095 110.313 32.6344 110.209 32.8929C110.106 33.1463 110.054 33.4152 110.054 33.6996C110.054 33.984 110.106 34.2529 110.209 34.5063C110.313 34.7596 110.458 34.982 110.644 35.1733C110.83 35.3594 111.05 35.5094 111.303 35.6232C111.556 35.7317 111.833 35.786 112.133 35.786C112.433 35.786 112.712 35.7317 112.971 35.6232C113.229 35.5094 113.451 35.3569 113.638 35.1655C113.824 34.9742 113.969 34.7519 114.072 34.4985C114.181 34.24 114.235 33.9685 114.235 33.6841ZM113.622 33.6996C113.622 33.9168 113.586 34.121 113.514 34.3123C113.441 34.4985 113.34 34.6614 113.211 34.801C113.082 34.9406 112.927 35.0518 112.746 35.1345C112.565 35.2121 112.366 35.2509 112.148 35.2509C111.936 35.2509 111.74 35.2095 111.559 35.1268C111.378 35.044 111.22 34.9328 111.086 34.7932C110.957 34.6536 110.853 34.4882 110.776 34.2968C110.703 34.1055 110.667 33.9013 110.667 33.6841C110.667 33.4669 110.703 33.2652 110.776 33.0791C110.848 32.8878 110.946 32.7223 111.07 32.5827C111.2 32.4379 111.355 32.3267 111.536 32.2492C111.717 32.1664 111.916 32.1251 112.133 32.1251C112.345 32.1251 112.541 32.1664 112.722 32.2492C112.903 32.3319 113.061 32.4457 113.196 32.5904C113.33 32.7301 113.433 32.8955 113.506 33.0868C113.583 33.2782 113.622 33.4824 113.622 33.6996ZM119.133 34.9949V31.683H118.536V32.4043C118.453 32.2957 118.36 32.1923 118.256 32.094C118.153 31.9958 118.037 31.9105 117.907 31.8381C117.783 31.7657 117.641 31.7088 117.481 31.6674C117.326 31.6209 117.155 31.5976 116.969 31.5976C116.731 31.5976 116.498 31.6416 116.271 31.7295C116.043 31.8174 115.842 31.9441 115.666 32.1096C115.49 32.2699 115.348 32.4689 115.239 32.7068C115.136 32.9395 115.084 33.2032 115.084 33.4979C115.084 33.7927 115.136 34.0564 115.239 34.2891C115.348 34.5218 115.49 34.7208 115.666 34.8863C115.842 35.0466 116.041 35.1707 116.263 35.2586C116.491 35.3413 116.726 35.3827 116.969 35.3827C117.336 35.3827 117.646 35.3 117.9 35.1345C118.153 34.969 118.368 34.77 118.543 34.5373V35.0104C118.543 35.481 118.412 35.8352 118.148 36.073C117.884 36.3161 117.53 36.4376 117.085 36.4376C116.796 36.4376 116.524 36.3936 116.271 36.3057C116.017 36.2178 115.774 36.0911 115.542 35.9257L115.27 36.391C115.539 36.5772 115.826 36.7168 116.131 36.8099C116.436 36.9029 116.757 36.9495 117.093 36.9495C117.403 36.9495 117.682 36.9081 117.931 36.8254C118.184 36.7426 118.399 36.6185 118.574 36.4531C118.755 36.2928 118.892 36.0911 118.985 35.8481C119.084 35.6051 119.133 35.3207 119.133 34.9949ZM118.559 33.4902C118.559 33.697 118.518 33.8857 118.435 34.0564C118.352 34.2219 118.241 34.3641 118.101 34.483C117.967 34.6019 117.812 34.695 117.636 34.7622C117.46 34.8243 117.277 34.8553 117.085 34.8553C116.899 34.8553 116.721 34.8243 116.55 34.7622C116.385 34.695 116.237 34.6019 116.108 34.483C115.984 34.3589 115.883 34.2141 115.805 34.0486C115.733 33.878 115.697 33.6893 115.697 33.4824C115.697 33.2756 115.733 33.0894 115.805 32.924C115.878 32.7533 115.976 32.6085 116.1 32.4896C116.229 32.3707 116.377 32.2802 116.542 32.2181C116.713 32.1561 116.894 32.1251 117.085 32.1251C117.277 32.1251 117.46 32.1587 117.636 32.2259C117.812 32.288 117.967 32.3784 118.101 32.4974C118.241 32.6163 118.352 32.7611 118.435 32.9317C118.518 33.0972 118.559 33.2833 118.559 33.4902ZM121.165 30.8065V30.1472H120.483V30.8065H121.165ZM121.119 35.693V31.683H120.522V35.693H121.119ZM122.862 33.909H126.042C126.047 33.8728 126.05 33.8392 126.05 33.8082C126.05 33.7772 126.05 33.7487 126.05 33.7229C126.05 33.4281 126.008 33.1515 125.925 32.8929C125.843 32.6344 125.721 32.4095 125.561 32.2181C125.401 32.0268 125.204 31.8769 124.971 31.7683C124.739 31.6545 124.475 31.5976 124.18 31.5976C123.901 31.5976 123.643 31.6519 123.405 31.7605C123.172 31.8691 122.97 32.0191 122.8 32.2104C122.629 32.3965 122.495 32.6189 122.396 32.8774C122.303 33.1308 122.257 33.4023 122.257 33.6918C122.257 34.0021 122.308 34.2865 122.412 34.545C122.52 34.8036 122.665 35.0259 122.846 35.2121C123.027 35.3931 123.239 35.5353 123.482 35.6387C123.725 35.7369 123.984 35.786 124.258 35.786C124.641 35.786 124.961 35.7188 125.22 35.5844C125.478 35.4448 125.708 35.2612 125.91 35.0337L125.538 34.7002C125.372 34.8708 125.189 35.0078 124.987 35.1112C124.79 35.2147 124.553 35.2664 124.273 35.2664C124.098 35.2664 123.93 35.2379 123.769 35.181C123.609 35.119 123.464 35.0311 123.335 34.9173C123.206 34.7984 123.1 34.6562 123.017 34.4907C122.934 34.3201 122.882 34.1262 122.862 33.909ZM122.862 33.4669C122.882 33.2704 122.929 33.0894 123.001 32.924C123.074 32.7585 123.167 32.6163 123.281 32.4974C123.394 32.3733 123.526 32.2776 123.676 32.2104C123.826 32.138 123.989 32.1018 124.165 32.1018C124.366 32.1018 124.542 32.1406 124.692 32.2181C124.847 32.2905 124.977 32.3888 125.08 32.5129C125.189 32.637 125.271 32.7818 125.328 32.9472C125.39 33.1127 125.429 33.2859 125.445 33.4669H122.862ZM129.849 34.5683V34.5528C129.849 34.3718 129.81 34.2193 129.732 34.0952C129.66 33.9711 129.562 33.8651 129.437 33.7772C129.313 33.6893 129.174 33.6169 129.019 33.56C128.869 33.5031 128.716 33.4514 128.561 33.4049C128.427 33.3635 128.297 33.3221 128.173 33.2808C128.049 33.2394 127.938 33.1929 127.84 33.1411C127.747 33.0894 127.672 33.03 127.615 32.9627C127.558 32.8904 127.529 32.8076 127.529 32.7145V32.699C127.529 32.5336 127.599 32.3965 127.739 32.288C127.878 32.1742 128.067 32.1173 128.305 32.1173C128.502 32.1173 128.701 32.1535 128.902 32.2259C129.109 32.2931 129.306 32.3862 129.492 32.5051L129.763 32.0553C129.556 31.9208 129.326 31.8148 129.073 31.7373C128.82 31.6545 128.569 31.6132 128.321 31.6132C128.124 31.6132 127.941 31.6416 127.77 31.6985C127.604 31.7502 127.46 31.8277 127.336 31.9312C127.217 32.0294 127.124 32.1509 127.056 32.2957C126.989 32.4353 126.955 32.5904 126.955 32.7611V32.7766C126.955 32.9627 126.994 33.1179 127.072 33.242C127.155 33.3661 127.258 33.4695 127.382 33.5522C127.511 33.635 127.654 33.7048 127.809 33.7616C127.969 33.8134 128.127 33.8625 128.282 33.909C128.411 33.9452 128.535 33.984 128.654 34.0254C128.778 34.0667 128.887 34.1159 128.98 34.1727C129.073 34.2244 129.145 34.2865 129.197 34.3589C129.254 34.4313 129.282 34.5166 129.282 34.6148V34.6304C129.282 34.8268 129.205 34.982 129.05 35.0957C128.895 35.2095 128.695 35.2664 128.452 35.2664C128.215 35.2664 127.977 35.2224 127.739 35.1345C127.506 35.0466 127.281 34.9199 127.064 34.7545L126.762 35.181C126.989 35.362 127.25 35.5068 127.545 35.6154C127.84 35.7188 128.132 35.7705 128.421 35.7705C128.623 35.7705 128.809 35.7447 128.98 35.693C129.156 35.6361 129.306 35.5559 129.43 35.4525C129.559 35.3491 129.66 35.225 129.732 35.0802C129.81 34.9303 129.849 34.7596 129.849 34.5683Z" fill="#F1F6FA"/>
</svg>
