<svg width="139" height="39" viewBox="0 0 139 39" fill="none" xmlns="http://www.w3.org/2000/svg">
<path d="M19.0176 13.6072V20.3162L23.7023 16.9617L19.0176 13.6072Z" fill="#1379BE"/>
<path d="M19.0176 20.3162L23.7122 16.9717L23.7023 16.9617L19.0176 20.3162Z" fill="#1379BE"/>
<path d="M4.77424 3.41424L0 0V33.9234L4.77424 30.5092V17.0314V3.41424Z" fill="#1379BE"/>
<path d="M23.7122 16.9617L19.0176 13.6072L23.7023 16.9617H23.7122Z" fill="#1379BE"/>
<path d="M15.1982 10.8798L11.3887 8.15237L4.77441 17.0314L11.329 25.8208L15.1285 23.0934L10.3344 17.0712L15.1982 10.8798Z" fill="#1379BE"/>
<path d="M81.5596 28.4985C80.176 28.5244 78.7978 28.3192 77.4816 27.8913C76.357 27.5189 75.3351 26.8882 74.4977 26.0498C72.8931 24.4173 72.0907 22.0947 72.0907 19.0819C72.0675 17.7323 72.2623 16.3878 72.6676 15.1003C73.0312 13.9955 73.6206 12.9785 74.3983 12.1141C75.2021 11.2479 76.1861 10.5689 77.2809 10.1251C78.3757 9.68139 79.5545 9.48366 80.7341 9.54594C81.9218 9.53189 83.103 9.72385 84.2253 10.1133C85.2682 10.4906 86.2059 11.1117 86.9605 11.925C87.7356 12.7601 88.3104 13.7609 88.6414 14.8515C89.0089 16.0848 89.1867 17.367 89.1686 18.6539V20.5054H76.9843C76.9446 21.0969 77.0374 21.6899 77.256 22.241C77.4745 22.7921 77.8133 23.2873 78.2475 23.6907C79.3184 24.4671 80.6286 24.8407 81.9475 24.7458C83.0425 24.7447 84.1315 24.5837 85.1801 24.268C85.7145 24.1056 86.2392 23.9128 86.7516 23.6907C87.3605 23.4269 87.9519 23.1243 88.5221 22.7848V27.1348C87.4388 27.5818 86.3122 27.9154 85.1602 28.1302C84.5758 28.2518 83.9845 28.3382 83.3898 28.389C82.7631 28.4686 82.1763 28.4985 81.5596 28.4985ZM84.4839 16.9219C84.5308 15.8802 84.1745 14.8605 83.4892 14.075C83.1714 13.7616 82.7873 13.5235 82.3653 13.3783C81.8537 13.2018 81.3149 13.1175 80.7739 13.1294C80.2899 13.106 79.8062 13.1823 79.3528 13.3535C78.8994 13.5247 78.486 13.7872 78.1381 14.1248C77.4652 14.9058 77.0761 15.8916 77.034 16.9219H84.4839Z" fill="#0B0D17"/>
<path d="M98.349 18.5842L92.1922 9.95407H97.7224L100.706 15.3492L103.69 9.95407H109.22L103.123 18.6241L109.747 28.0605H104.227L100.726 21.8989L97.1852 27.9908H91.665L98.349 18.5842Z" fill="#0B0D17"/>
<path d="M121.444 28.4985C120.06 28.518 118.681 28.3061 117.366 27.8714C116.242 27.499 115.22 26.8684 114.382 26.0299C112.778 24.3974 111.975 22.0748 111.975 19.062C111.952 17.7124 112.147 16.3679 112.552 15.0804C112.916 13.9756 113.505 12.9586 114.283 12.0942C115.087 11.228 116.071 10.549 117.166 10.1053C118.26 9.66149 119.439 9.46376 120.619 9.52605C121.807 9.51199 122.988 9.70396 124.11 10.0934C125.153 10.4707 126.091 11.0918 126.845 11.9051C127.62 12.7402 128.195 13.741 128.526 14.8316C128.889 16.0659 129.067 17.3474 129.053 18.634V20.5054H116.839C116.8 21.0969 116.892 21.6899 117.111 22.241C117.329 22.7921 117.668 23.2874 118.102 23.6907C119.173 24.4671 120.483 24.8407 121.802 24.7458C122.897 24.7447 123.986 24.5837 125.035 24.268C125.569 24.1056 126.094 23.9128 126.607 23.6907C127.205 23.4258 127.787 23.1232 128.347 22.7849V27.1348C127.264 27.5819 126.137 27.9154 124.985 28.1302C124.401 28.2518 123.81 28.3382 123.215 28.389C122.618 28.4686 122.031 28.4985 121.444 28.4985ZM124.329 16.9219C124.376 15.8802 124.019 14.8605 123.334 14.0751C123.016 13.7616 122.632 13.5235 122.21 13.3783C121.699 13.2018 121.16 13.1175 120.619 13.1294C120.135 13.106 119.651 13.1823 119.198 13.3535C118.744 13.5247 118.331 13.7872 117.983 14.1248C117.314 14.9071 116.928 15.8928 116.889 16.9219H124.329Z" fill="#0B0D17"/>
<path d="M68.908 16.5934C68.908 16.5038 68.908 16.4242 68.908 16.3446V15.9962C68.908 15.807 68.908 15.6478 68.908 15.4786C68.908 15.3093 68.908 15.0306 68.8384 14.8216C68.805 14.5665 68.7552 14.3138 68.6892 14.0651C68.6892 13.8859 68.6196 13.6968 68.5699 13.5276C68.4908 13.2803 68.3978 13.0377 68.2914 12.8009C68.2317 12.6715 68.1919 12.5322 68.1322 12.4227C67.9673 12.0934 67.7672 11.783 67.5354 11.4969C67.3566 11.2877 67.1567 11.0975 66.9387 10.9296L66.8292 10.84C66.6133 10.6887 66.3873 10.5524 66.1529 10.4319L66.0236 10.3721C65.4686 10.1322 64.8827 9.97137 64.283 9.89434H64.2034C63.915 9.89434 63.6166 9.82466 63.2983 9.80475C62.3184 9.68703 61.3246 9.80639 60.4004 10.1528C59.4761 10.4992 58.6485 11.0626 57.987 11.7956V9.62558L53.2227 9.70521V28.3193H57.9372V14.9809C58.3409 14.6207 58.8137 14.3467 59.3267 14.1755C59.8397 14.0044 60.3823 13.9397 60.9211 13.9855C61.8122 13.9977 62.664 14.3544 63.2983 14.9809C63.6368 15.3673 63.8863 15.8236 64.0289 16.3173C64.1716 16.811 64.204 17.33 64.1238 17.8377V18.1363V28.3193H68.8384V17.1409L68.908 16.5934Z" fill="#0B0D17"/>
<path d="M38.0546 19.0222V5.41501L33.3301 2.04059V28.16H38.0546V19.1914H37.9253L38.0546 19.0222Z" fill="#0B0D17"/>
<path d="M43.5156 19.1815L48.4788 12.8805L44.6694 10.1531L38.0551 19.0222V19.1018H37.9258L44.6594 28.2198L50.5875 28.16L43.5156 19.1815Z" fill="#0B0D17"/>
<path d="M137.607 1.94104V28.16H132.893V5.31547L137.607 1.94104Z" fill="#0B0D17"/>
<path d="M82.7823 30.8298H84.605V30.2636H80.339V30.8298H82.1618V35.693H82.7823V30.8298ZM85.0276 33.909H88.2077C88.2128 33.8728 88.2154 33.8392 88.2154 33.8082C88.2154 33.7772 88.2154 33.7487 88.2154 33.7229C88.2154 33.4281 88.1741 33.1515 88.0913 32.8929C88.0086 32.6344 87.8871 32.4095 87.7268 32.2181C87.5665 32.0268 87.37 31.8769 87.1373 31.7683C86.9046 31.6545 86.6409 31.5976 86.3462 31.5976C86.0669 31.5976 85.8084 31.6519 85.5705 31.7605C85.3378 31.8691 85.1362 32.0191 84.9655 32.2104C84.7949 32.3965 84.6605 32.6189 84.5622 32.8774C84.4691 33.1308 84.4226 33.4023 84.4226 33.6918C84.4226 34.0021 84.4743 34.2865 84.5777 34.545C84.6863 34.8036 84.8311 35.0259 85.0121 35.2121C85.1931 35.3931 85.4051 35.5353 85.6481 35.6387C85.8911 35.7369 86.1497 35.786 86.4237 35.786C86.8064 35.786 87.127 35.7188 87.3855 35.5844C87.6441 35.4448 87.8742 35.2612 88.0758 35.0337L87.7035 34.7002C87.538 34.8708 87.3545 35.0078 87.1528 35.1112C86.9563 35.2147 86.7185 35.2664 86.4392 35.2664C86.2634 35.2664 86.0954 35.2379 85.9351 35.181C85.7748 35.119 85.63 35.0311 85.5007 34.9173C85.3715 34.7984 85.2655 34.6562 85.1827 34.4907C85.1 34.3201 85.0483 34.1262 85.0276 33.909ZM85.0276 33.4669C85.0483 33.2704 85.0948 33.0894 85.1672 32.924C85.2396 32.7585 85.3327 32.6163 85.4464 32.4974C85.5602 32.3733 85.6921 32.2776 85.842 32.2104C85.992 32.138 86.1548 32.1018 86.3307 32.1018C86.5323 32.1018 86.7081 32.1406 86.8581 32.2181C87.0132 32.2905 87.1425 32.3888 87.2459 32.5129C87.3545 32.637 87.4372 32.7818 87.4941 32.9472C87.5561 33.1127 87.5949 33.2859 87.6104 33.4669H85.0276ZM92.7047 35.0104L92.3247 34.6536C92.1644 34.8243 91.9834 34.9665 91.7817 35.0802C91.5853 35.194 91.3577 35.2509 91.0992 35.2509C90.8872 35.2509 90.6907 35.2121 90.5097 35.1345C90.3339 35.0518 90.1788 34.9406 90.0443 34.801C89.9151 34.6562 89.8117 34.4882 89.7341 34.2968C89.6617 34.1055 89.6255 33.9013 89.6255 33.6841C89.6255 33.4669 89.6617 33.2652 89.7341 33.0791C89.8065 32.8878 89.9073 32.7223 90.0366 32.5827C90.1659 32.4379 90.3184 32.3267 90.4942 32.2492C90.67 32.1664 90.8588 32.1251 91.0604 32.1251C91.3345 32.1251 91.5646 32.1845 91.7507 32.3035C91.942 32.4224 92.1179 32.5646 92.2782 32.7301L92.6737 32.3112C92.5806 32.213 92.4798 32.1199 92.3712 32.032C92.2626 31.9441 92.1437 31.8691 92.0144 31.8071C91.8852 31.7398 91.743 31.6881 91.5878 31.6519C91.4327 31.6157 91.2595 31.5976 91.0682 31.5976C90.7734 31.5976 90.4994 31.6545 90.246 31.7683C89.9978 31.8769 89.7806 32.0268 89.5945 32.2181C89.4135 32.4095 89.2713 32.6344 89.1679 32.8929C89.0645 33.1463 89.0128 33.4152 89.0128 33.6996C89.0128 33.984 89.0645 34.2529 89.1679 34.5063C89.2713 34.7596 89.4135 34.982 89.5945 35.1733C89.7806 35.3594 89.9978 35.5094 90.246 35.6232C90.4994 35.7317 90.7734 35.786 91.0682 35.786C91.4456 35.786 91.7611 35.7136 92.0144 35.5689C92.273 35.4241 92.5031 35.2379 92.7047 35.0104ZM94.2893 33.3971C94.2893 33.211 94.3177 33.0403 94.3746 32.8852C94.4366 32.7301 94.522 32.5982 94.6305 32.4896C94.7391 32.3759 94.8658 32.2905 95.0106 32.2337C95.1606 32.1716 95.3209 32.1406 95.4915 32.1406C95.8483 32.1406 96.1223 32.2492 96.3137 32.4663C96.505 32.6835 96.6006 32.9783 96.6006 33.3506V35.693H97.1979V33.2032C97.1979 32.9653 97.1617 32.7482 97.0893 32.5517C97.0221 32.3552 96.9212 32.1871 96.7868 32.0475C96.6575 31.9027 96.4972 31.7915 96.3059 31.714C96.1198 31.6364 95.9052 31.5976 95.6621 31.5976C95.3157 31.5976 95.0339 31.6752 94.8167 31.8303C94.5995 31.9803 94.4237 32.1639 94.2893 32.381V30.0309H93.692V35.693H94.2893V33.3971ZM99.0688 33.3971C99.0688 33.211 99.0972 33.0403 99.1541 32.8852C99.2161 32.7301 99.3015 32.5982 99.4101 32.4896C99.5186 32.3759 99.6453 32.2905 99.7901 32.2337C99.9401 32.1716 100.1 32.1406 100.271 32.1406C100.628 32.1406 100.902 32.2492 101.093 32.4663C101.284 32.6835 101.38 32.9783 101.38 33.3506V35.693H101.977V33.2032C101.977 32.9653 101.941 32.7482 101.869 32.5517C101.802 32.3552 101.701 32.1871 101.566 32.0475C101.437 31.9027 101.277 31.7915 101.085 31.714C100.899 31.6364 100.685 31.5976 100.442 31.5976C100.095 31.5976 99.8134 31.6752 99.5962 31.8303C99.379 31.9803 99.2032 32.1639 99.0688 32.381V31.683H98.4715V35.693H99.0688V33.3971ZM107.183 33.6841C107.183 33.3997 107.132 33.1308 107.028 32.8774C106.925 32.6241 106.78 32.4043 106.594 32.2181C106.408 32.0268 106.186 31.8769 105.927 31.7683C105.674 31.6545 105.397 31.5976 105.097 31.5976C104.792 31.5976 104.51 31.6545 104.252 31.7683C103.998 31.8769 103.778 32.0268 103.592 32.2181C103.406 32.4095 103.261 32.6344 103.158 32.8929C103.055 33.1463 103.003 33.4152 103.003 33.6996C103.003 33.984 103.055 34.2529 103.158 34.5063C103.261 34.7596 103.406 34.982 103.592 35.1733C103.778 35.3594 103.998 35.5094 104.252 35.6232C104.505 35.7317 104.782 35.786 105.082 35.786C105.381 35.786 105.661 35.7317 105.919 35.6232C106.178 35.5094 106.4 35.3569 106.586 35.1655C106.772 34.9742 106.917 34.7519 107.021 34.4985C107.129 34.24 107.183 33.9685 107.183 33.6841ZM106.571 33.6996C106.571 33.9168 106.535 34.121 106.462 34.3123C106.39 34.4985 106.289 34.6614 106.16 34.801C106.03 34.9406 105.875 35.0518 105.694 35.1345C105.513 35.2121 105.314 35.2509 105.097 35.2509C104.885 35.2509 104.689 35.2095 104.508 35.1268C104.327 35.044 104.169 34.9328 104.034 34.7932C103.905 34.6536 103.802 34.4882 103.724 34.2968C103.652 34.1055 103.616 33.9013 103.616 33.6841C103.616 33.4669 103.652 33.2652 103.724 33.0791C103.797 32.8878 103.895 32.7223 104.019 32.5827C104.148 32.4379 104.303 32.3267 104.484 32.2492C104.665 32.1664 104.864 32.1251 105.082 32.1251C105.294 32.1251 105.49 32.1664 105.671 32.2492C105.852 32.3319 106.01 32.4457 106.144 32.5904C106.279 32.7301 106.382 32.8955 106.454 33.0868C106.532 33.2782 106.571 33.4824 106.571 33.6996ZM108.917 35.693V30.0309H108.32V35.693H108.917ZM114.235 33.6841C114.235 33.3997 114.184 33.1308 114.08 32.8774C113.977 32.6241 113.832 32.4043 113.646 32.2181C113.46 32.0268 113.237 31.8769 112.979 31.7683C112.725 31.6545 112.449 31.5976 112.149 31.5976C111.844 31.5976 111.562 31.6545 111.303 31.7683C111.05 31.8769 110.83 32.0268 110.644 32.2181C110.458 32.4095 110.313 32.6344 110.21 32.8929C110.106 33.1463 110.055 33.4152 110.055 33.6996C110.055 33.984 110.106 34.2529 110.21 34.5063C110.313 34.7596 110.458 34.982 110.644 35.1733C110.83 35.3594 111.05 35.5094 111.303 35.6232C111.557 35.7317 111.833 35.786 112.133 35.786C112.433 35.786 112.713 35.7317 112.971 35.6232C113.23 35.5094 113.452 35.3569 113.638 35.1655C113.824 34.9742 113.969 34.7519 114.072 34.4985C114.181 34.24 114.235 33.9685 114.235 33.6841ZM113.623 33.6996C113.623 33.9168 113.586 34.121 113.514 34.3123C113.442 34.4985 113.341 34.6614 113.212 34.801C113.082 34.9406 112.927 35.0518 112.746 35.1345C112.565 35.2121 112.366 35.2509 112.149 35.2509C111.937 35.2509 111.74 35.2095 111.559 35.1268C111.378 35.044 111.221 34.9328 111.086 34.7932C110.957 34.6536 110.854 34.4882 110.776 34.2968C110.704 34.1055 110.667 33.9013 110.667 33.6841C110.667 33.4669 110.704 33.2652 110.776 33.0791C110.848 32.8878 110.947 32.7223 111.071 32.5827C111.2 32.4379 111.355 32.3267 111.536 32.2492C111.717 32.1664 111.916 32.1251 112.133 32.1251C112.345 32.1251 112.542 32.1664 112.723 32.2492C112.904 32.3319 113.062 32.4457 113.196 32.5904C113.33 32.7301 113.434 32.8955 113.506 33.0868C113.584 33.2782 113.623 33.4824 113.623 33.6996ZM119.133 34.9949V31.683H118.536V32.4043C118.453 32.2957 118.36 32.1923 118.257 32.094C118.153 31.9958 118.037 31.9105 117.908 31.8381C117.784 31.7657 117.642 31.7088 117.481 31.6674C117.326 31.6209 117.155 31.5976 116.969 31.5976C116.731 31.5976 116.499 31.6416 116.271 31.7295C116.044 31.8174 115.842 31.9441 115.666 32.1096C115.49 32.2699 115.348 32.4689 115.24 32.7068C115.136 32.9395 115.085 33.2032 115.085 33.4979C115.085 33.7927 115.136 34.0564 115.24 34.2891C115.348 34.5218 115.49 34.7208 115.666 34.8863C115.842 35.0466 116.041 35.1707 116.264 35.2586C116.491 35.3413 116.726 35.3827 116.969 35.3827C117.336 35.3827 117.647 35.3 117.9 35.1345C118.153 34.969 118.368 34.77 118.544 34.5373V35.0104C118.544 35.481 118.412 35.8352 118.148 36.073C117.885 36.3161 117.53 36.4376 117.086 36.4376C116.796 36.4376 116.525 36.3936 116.271 36.3057C116.018 36.2178 115.775 36.0911 115.542 35.9257L115.271 36.391C115.54 36.5772 115.827 36.7168 116.132 36.8099C116.437 36.9029 116.757 36.9495 117.093 36.9495C117.404 36.9495 117.683 36.9081 117.931 36.8254C118.184 36.7426 118.399 36.6185 118.575 36.4531C118.756 36.2928 118.893 36.0911 118.986 35.8481C119.084 35.6051 119.133 35.3207 119.133 34.9949ZM118.559 33.4902C118.559 33.697 118.518 33.8857 118.435 34.0564C118.353 34.2219 118.241 34.3641 118.102 34.483C117.967 34.6019 117.812 34.695 117.636 34.7622C117.461 34.8243 117.277 34.8553 117.086 34.8553C116.9 34.8553 116.721 34.8243 116.55 34.7622C116.385 34.695 116.238 34.6019 116.108 34.483C115.984 34.3589 115.883 34.2141 115.806 34.0486C115.733 33.878 115.697 33.6893 115.697 33.4824C115.697 33.2756 115.733 33.0894 115.806 32.924C115.878 32.7533 115.977 32.6085 116.101 32.4896C116.23 32.3707 116.377 32.2802 116.543 32.2181C116.713 32.1561 116.894 32.1251 117.086 32.1251C117.277 32.1251 117.461 32.1587 117.636 32.2259C117.812 32.288 117.967 32.3784 118.102 32.4974C118.241 32.6163 118.353 32.7611 118.435 32.9317C118.518 33.0972 118.559 33.2833 118.559 33.4902ZM121.166 30.8065V30.1472H120.483V30.8065H121.166ZM121.119 35.693V31.683H120.522V35.693H121.119ZM122.862 33.909H126.042C126.047 33.8728 126.05 33.8392 126.05 33.8082C126.05 33.7772 126.05 33.7487 126.05 33.7229C126.05 33.4281 126.009 33.1515 125.926 32.8929C125.843 32.6344 125.722 32.4095 125.561 32.2181C125.401 32.0268 125.205 31.8769 124.972 31.7683C124.739 31.6545 124.476 31.5976 124.181 31.5976C123.902 31.5976 123.643 31.6519 123.405 31.7605C123.172 31.8691 122.971 32.0191 122.8 32.2104C122.63 32.3965 122.495 32.6189 122.397 32.8774C122.304 33.1308 122.257 33.4023 122.257 33.6918C122.257 34.0021 122.309 34.2865 122.412 34.545C122.521 34.8036 122.666 35.0259 122.847 35.2121C123.028 35.3931 123.24 35.5353 123.483 35.6387C123.726 35.7369 123.984 35.786 124.258 35.786C124.641 35.786 124.962 35.7188 125.22 35.5844C125.479 35.4448 125.709 35.2612 125.91 35.0337L125.538 34.7002C125.373 34.8708 125.189 35.0078 124.987 35.1112C124.791 35.2147 124.553 35.2664 124.274 35.2664C124.098 35.2664 123.93 35.2379 123.77 35.181C123.609 35.119 123.465 35.0311 123.335 34.9173C123.206 34.7984 123.1 34.6562 123.017 34.4907C122.935 34.3201 122.883 34.1262 122.862 33.909ZM122.862 33.4669C122.883 33.2704 122.929 33.0894 123.002 32.924C123.074 32.7585 123.167 32.6163 123.281 32.4974C123.395 32.3733 123.527 32.2776 123.677 32.2104C123.827 32.138 123.989 32.1018 124.165 32.1018C124.367 32.1018 124.543 32.1406 124.693 32.2181C124.848 32.2905 124.977 32.3888 125.081 32.5129C125.189 32.637 125.272 32.7818 125.329 32.9472C125.391 33.1127 125.43 33.2859 125.445 33.4669H122.862ZM129.849 34.5683V34.5528C129.849 34.3718 129.81 34.2193 129.733 34.0952C129.66 33.9711 129.562 33.8651 129.438 33.7772C129.314 33.6893 129.174 33.6169 129.019 33.56C128.869 33.5031 128.717 33.4514 128.562 33.4049C128.427 33.3635 128.298 33.3221 128.174 33.2808C128.05 33.2394 127.938 33.1929 127.84 33.1411C127.747 33.0894 127.672 33.03 127.615 32.9627C127.558 32.8904 127.53 32.8076 127.53 32.7145V32.699C127.53 32.5336 127.6 32.3965 127.739 32.288C127.879 32.1742 128.068 32.1173 128.306 32.1173C128.502 32.1173 128.701 32.1535 128.903 32.2259C129.11 32.2931 129.306 32.3862 129.492 32.5051L129.764 32.0553C129.557 31.9208 129.327 31.8148 129.073 31.7373C128.82 31.6545 128.569 31.6132 128.321 31.6132C128.125 31.6132 127.941 31.6416 127.77 31.6985C127.605 31.7502 127.46 31.8277 127.336 31.9312C127.217 32.0294 127.124 32.1509 127.057 32.2957C126.99 32.4353 126.956 32.5904 126.956 32.7611V32.7766C126.956 32.9627 126.995 33.1179 127.072 33.242C127.155 33.3661 127.258 33.4695 127.383 33.5522C127.512 33.635 127.654 33.7048 127.809 33.7616C127.969 33.8134 128.127 33.8625 128.282 33.909C128.412 33.9452 128.536 33.984 128.655 34.0254C128.779 34.0667 128.887 34.1159 128.98 34.1727C129.073 34.2244 129.146 34.2865 129.198 34.3589C129.254 34.4313 129.283 34.5166 129.283 34.6148V34.6304C129.283 34.8268 129.205 34.982 129.05 35.0957C128.895 35.2095 128.696 35.2664 128.453 35.2664C128.215 35.2664 127.977 35.2224 127.739 35.1345C127.507 35.0466 127.282 34.9199 127.065 34.7545L126.762 35.181C126.99 35.362 127.251 35.5068 127.545 35.6154C127.84 35.7188 128.132 35.7705 128.422 35.7705C128.624 35.7705 128.81 35.7447 128.98 35.693C129.156 35.6361 129.306 35.5559 129.43 35.4525C129.559 35.3491 129.66 35.225 129.733 35.0802C129.81 34.9303 129.849 34.7596 129.849 34.5683Z" fill="#0B0D17"/>
</svg>
