<svg width="24" height="24" viewBox="0 0 24 24" fill="none" xmlns="http://www.w3.org/2000/svg">
<g clip-path="url(#clip0_676_5040)">
<path d="M0.70208 18.3286H19.0779C19.2427 18.3286 19.402 18.271 19.5283 18.1659C19.7048 18.0181 23.731 14.5545 23.9765 7.07812H4.24121C3.99665 13.8647 0.288765 17.0546 0.250232 17.0864C0.0243312 17.2773 -0.0587819 17.5891 0.0428476 17.8665C0.143774 18.1432 0.406802 18.3286 0.70208 18.3286V18.3286Z" fill="white"/>
<path d="M23.297 2.85944H19.7812V2.15628C19.7812 1.76251 19.4718 1.45312 19.0781 1.45312C18.6843 1.45312 18.3749 1.76251 18.3749 2.15628V2.85944H14.8122V2.15628C14.8122 1.76251 14.5029 1.45312 14.1091 1.45312C13.7153 1.45312 13.4059 1.76251 13.4059 2.15628V2.85944H9.89015V2.15628C9.89015 1.76251 9.58076 1.45312 9.18699 1.45312C8.79322 1.45312 8.48383 1.76251 8.48383 2.15628V2.85944H4.96805C4.57428 2.85944 4.26489 3.16883 4.26489 3.56259V5.67206H24.0002V3.56259C24.0002 3.16883 23.6908 2.85944 23.297 2.85944Z" fill="white"/>
<path d="M20.4315 19.2437C20.0497 19.5616 19.5704 19.7347 19.0781 19.7347H4.26489V21.8441C4.26489 22.2328 4.57939 22.5473 4.96805 22.5473H23.297C23.6857 22.5473 24.0002 22.2328 24.0002 21.8441V13.9619C22.6445 17.2879 20.7527 18.9748 20.4315 19.2437Z" fill="white"/>
</g>
<defs>
<clipPath id="clip0_676_5040">
<rect width="24" height="24" fill="white"/>
</clipPath>
</defs>
</svg>
