<svg width="14" height="14" viewBox="0 0 14 14" fill="none" xmlns="http://www.w3.org/2000/svg">
<g clip-path="url(#clip0_102:2826)">
<path d="M7.00004 0.0291595C3.13407 0.0291595 0 3.16322 0 7.0292C0 10.4965 2.52365 13.3681 5.83257 13.9241V8.4896H4.14396V6.53394H5.83257V5.09191C5.83257 3.41875 6.85449 2.50697 8.34729 2.50697C9.06225 2.50697 9.67667 2.56024 9.85504 2.58371V4.33261L8.81967 4.33311C8.00802 4.33311 7.85153 4.71873 7.85153 5.28481V6.53294H9.78823L9.53563 8.4886H7.85153V13.9709C11.3149 13.5493 14 10.6047 14 7.0272C14 3.16322 10.8659 0.0291595 7.00004 0.0291595Z" fill="white"/>
<g clip-path="url(#clip1_102:2826)">
<path d="M256.5 -97.7646C255.303 -124.916 250.912 -143.582 244.622 -159.757C238.134 -176.926 228.151 -192.297 215.073 -205.076C202.295 -218.053 186.822 -228.137 169.852 -234.524C153.584 -240.813 135.015 -245.204 107.863 -246.401C80.5091 -247.7 71.8252 -248 2.44737 -248C-66.9304 -248 -75.6144 -247.7 -102.867 -246.503C-130.019 -245.306 -148.685 -240.911 -164.856 -234.625C-182.028 -228.137 -197.4 -218.154 -210.178 -205.076C-223.155 -192.297 -233.235 -176.825 -239.626 -159.854C-245.916 -143.582 -250.307 -125.017 -251.504 -97.866C-252.802 -70.5118 -253.103 -61.8279 -253.103 7.54991C-253.103 76.9277 -252.802 85.6116 -251.605 112.864C-250.408 140.016 -246.013 158.682 -239.724 174.857C-233.235 192.026 -223.155 207.397 -210.178 220.175C-197.4 233.153 -181.927 243.236 -164.957 249.624C-148.685 255.913 -130.12 260.304 -102.965 261.501C-75.7157 262.702 -67.0279 262.998 2.34988 262.998C71.7277 262.998 80.4116 262.702 107.664 261.501C134.816 260.304 153.482 255.913 169.653 249.624C203.995 236.346 231.146 209.195 244.424 174.857C250.709 158.585 255.104 140.016 256.301 112.864C257.498 85.6116 257.798 76.9277 257.798 7.54991C257.798 -61.8279 257.697 -70.5118 256.5 -97.7646ZM210.483 110.868C209.384 135.824 205.192 149.3 201.698 158.284C193.112 180.546 175.443 198.214 153.182 206.801C144.198 210.294 130.624 214.486 105.765 215.582C78.8129 216.783 70.7295 217.079 2.54875 217.079C-65.6319 217.079 -73.8167 216.783 -100.672 215.582C-125.628 214.486 -139.104 210.294 -148.088 206.801C-159.166 202.706 -169.25 196.218 -177.435 187.733C-185.92 179.446 -192.409 169.464 -196.503 158.386C-199.997 149.402 -204.189 135.824 -205.284 110.969C-206.485 84.0168 -206.782 75.9295 -206.782 7.74878C-206.782 -60.4319 -206.485 -68.6167 -205.284 -95.4679C-204.189 -120.424 -199.997 -133.9 -196.503 -142.884C-192.409 -153.966 -185.92 -164.046 -177.334 -172.235C-169.051 -180.72 -159.069 -187.209 -147.987 -191.299C-139.003 -194.793 -125.425 -198.985 -100.57 -200.084C-73.6179 -201.282 -65.5306 -201.582 2.64624 -201.582C70.9283 -201.582 79.0117 -201.282 105.867 -200.084C130.823 -198.985 144.299 -194.793 153.283 -191.299C164.361 -187.209 174.445 -180.72 182.63 -172.235C191.115 -163.949 197.604 -153.966 201.698 -142.884C205.192 -133.9 209.384 -120.326 210.483 -95.4679C211.68 -68.5153 211.981 -60.4319 211.981 7.74878C211.981 75.9295 211.68 83.9154 210.483 110.868Z" fill="#0B0D17"/>
<path d="M2.44751 -123.719C-70.0225 -123.719 -128.821 -64.924 -128.821 7.54993C-128.821 80.0238 -70.0225 138.819 2.44751 138.819C74.9214 138.819 133.716 80.0238 133.716 7.54993C133.716 -64.924 74.9214 -123.719 2.44751 -123.719ZM2.44751 92.7007C-44.5673 92.7007 -82.7033 54.5687 -82.7033 7.54993C-82.7033 -39.4688 -44.5673 -77.6009 2.44751 -77.6009C49.4663 -77.6009 87.5983 -39.4688 87.5983 7.54993C87.5983 54.5687 49.4663 92.7007 2.44751 92.7007Z" fill="#0B0D17"/>
</g>
</g>
<defs>
<clipPath id="clip0_102:2826">
<rect width="14" height="14" fill="white"/>
</clipPath>
<clipPath id="clip1_102:2826">
<rect width="511" height="511" fill="white" transform="translate(-254 -248)"/>
</clipPath>
</defs>
</svg>
