<svg width="42" height="42" viewBox="0 0 42 42" fill="none" xmlns="http://www.w3.org/2000/svg">
<rect x="0.5" y="0.5" width="41" height="41" rx="5.5" fill="white" stroke="#1379BE"/>
<path d="M25.4449 20.3757L18.3247 13.2556C18.1601 13.0908 17.9402 13 17.7058 13C17.4714 13 17.2516 13.0908 17.0869 13.2556L16.5625 13.7798C16.2213 14.1214 16.2213 14.6766 16.5625 15.0177L22.5415 20.9967L16.5559 26.9823C16.3912 27.1471 16.3003 27.3668 16.3003 27.6011C16.3003 27.8357 16.3912 28.0554 16.5559 28.2203L17.0803 28.7444C17.2451 28.9092 17.4648 29 17.6992 29C17.9336 29 18.1534 28.9092 18.3181 28.7444L25.4449 21.6178C25.61 21.4525 25.7007 21.2317 25.7002 20.9971C25.7007 20.7615 25.61 20.5409 25.4449 20.3757Z" fill="#1379BE"/>
</svg>
