<svg width="42" height="42" viewBox="0 0 42 42" fill="none" xmlns="http://www.w3.org/2000/svg">
<rect x="41.5" y="41.5" width="41" height="41" rx="5.5" transform="rotate(-180 41.5 41.5)" fill="white" stroke="#1379BE"/>
<g clip-path="url(#clip0_37:2019)">
<path d="M16.5551 21.6243L23.6753 28.7444C23.8399 28.9092 24.0598 29 24.2942 29C24.5286 29 24.7484 28.9092 24.9131 28.7444L25.4375 28.2202C25.7787 27.8786 25.7787 27.3234 25.4375 26.9823L19.4585 21.0033L25.4441 15.0177C25.6088 14.8529 25.6997 14.6332 25.6997 14.3989C25.6997 14.1643 25.6088 13.9446 25.4441 13.7797L24.9197 13.2556C24.7549 13.0908 24.5352 13 24.3008 13C24.0664 13 23.8466 13.0908 23.6819 13.2556L16.5551 20.3822C16.39 20.5475 16.2993 20.7683 16.2998 21.0029C16.2993 21.2385 16.39 21.4591 16.5551 21.6243Z" fill="#1379BE"/>
</g>
<defs>
<clipPath id="clip0_37:2019">
<rect width="16" height="16" fill="white" transform="translate(29 29) rotate(-180)"/>
</clipPath>
</defs>
</svg>
