<svg width="42" height="42" viewBox="0 0 42 42" fill="none" xmlns="http://www.w3.org/2000/svg">
<rect x="41.5" y="41.5" width="41" height="41" rx="5.5" transform="rotate(-180 41.5 41.5)" fill="white" stroke="#1379BE"/>
<g clip-path="url(#clip0_370:6736)">
<path d="M16.5553 21.6243L23.6755 28.7444C23.8402 28.9092 24.06 29 24.2944 29C24.5288 29 24.7487 28.9092 24.9134 28.7444L25.4377 28.2202C25.7789 27.8786 25.7789 27.3234 25.4377 26.9823L19.4587 21.0033L25.4443 15.0177C25.609 14.8529 25.7 14.6332 25.7 14.3989C25.7 14.1643 25.609 13.9446 25.4443 13.7797L24.92 13.2556C24.7552 13.0908 24.5355 13 24.3011 13C24.0667 13 23.8468 13.0908 23.6821 13.2556L16.5553 20.3822C16.3902 20.5475 16.2996 20.7683 16.3001 21.0029C16.2996 21.2385 16.3902 21.4591 16.5553 21.6243Z" fill="#1379BE"/>
</g>
<defs>
<clipPath id="clip0_370:6736">
<rect width="16" height="16" fill="white" transform="translate(29 29) rotate(-180)"/>
</clipPath>
</defs>
</svg>
