<svg width="42" height="42" viewBox="0 0 42 42" fill="none" xmlns="http://www.w3.org/2000/svg">
<rect x="0.5" y="0.5" width="41" height="41" rx="5.5" fill="white" stroke="#1379BE"/>
<path d="M25.4447 20.3757L18.3245 13.2556C18.1598 13.0908 17.94 13 17.7056 13C17.4712 13 17.2513 13.0908 17.0866 13.2556L16.5623 13.7798C16.2211 14.1214 16.2211 14.6766 16.5623 15.0177L22.5413 20.9967L16.5557 26.9823C16.391 27.1471 16.3 27.3668 16.3 27.6011C16.3 27.8357 16.391 28.0554 16.5557 28.2203L17.08 28.7444C17.2448 28.9092 17.4645 29 17.6989 29C17.9333 29 18.1532 28.9092 18.3179 28.7444L25.4447 21.6178C25.6098 21.4525 25.7004 21.2317 25.6999 20.9971C25.7004 20.7615 25.6098 20.5409 25.4447 20.3757Z" fill="#1379BE"/>
</svg>
